<?xml version="1.0" standalone="no"?><!DOCTYPE svg PUBLIC "-//W3C//DTD SVG 1.1//EN" "http://www.w3.org/Graphics/SVG/1.1/DTD/svg11.dtd"><svg t="1706694663451" class="icon" viewBox="0 0 1024 1024" version="1.1" xmlns="http://www.w3.org/2000/svg" p-id="13685" xmlns:xlink="http://www.w3.org/1999/xlink" width="200" height="200"><path d="M915.249539 1024L511.90564 851.131589 108.56174 1023.90564V0.09436h806.78216v1023.81128zM371.214154 532.948028v101.060081c0 49.869517 28.638408 58.645042 89.029119 58.645042h129.085146c59.635827 0 76.573535-19.155179 82.376704-93.22816l0.377442-6.274973-6.274972-1.132325a111.864357 111.864357 0 0 1-36.328787-13.54073l-10.426834-7.454479-0.754884 12.785846a145.786952 145.786952 0 0 1-8.115002 52.794692c-3.113896 5.425728-7.360118 8.020641-23.30704 8.020642H462.366384c-35.573903 0-35.573903-2.547733-35.573903-10.992997v-100.635459z m-60.249171 13.352009l-2.500552 6.086251a485.390343 485.390343 0 0 1-56.946554 98.653889l-6.086251 7.265757 52.41725 22.363436 3.302617-4.718025a613.579064 613.579064 0 0 0 48.831552-87.472171l2.783634-5.520088c1.840029-3.680059 3.585698-7.124217 5.048286-10.568375l3.491338-6.888315z m311.106525-65.769259a119.460376 119.460376 0 0 0 77.517139 53.832657l-51.237744 16.607446 5.331368 7.643199a614.71139 614.71139 0 0 1 59.258385 106.721711l2.500553 6.888315 53.172134-20.617766-2.925175-6.699595a649.294508 649.294508 0 0 0-62.938444-106.297088l-3.113897-4.151861a95.775894 95.775894 0 0 0 12.172503 0.802064c46.708441 0 58.409141-34.630299 63.598968-98.653889l0.566163-6.086251-5.708809-1.556948a92.331736 92.331736 0 0 1-30.761519-16.088463l-10.945816-9.011427-0.660524 14.154073c-1.651309 42.462219-6.463693 63.740509-14.673055 64.306672-17.692591 0-36.140066-14.625875-53.360856-42.179138a458.922226 458.922226 0 0 0 77.847402-134.935495l2.783634-7.454479-51.426465-12.549944-2.123111 6.086251a383.433837 383.433837 0 0 1-51.898268 96.294876 560.973093 560.973093 0 0 1-26.892738-114.55363h162.630298V223.587173h-51.898267l10.426834-8.633985-6.369333-5.472908a332.903797 332.903797 0 0 0-73.176558-43.547364l-3.86878-1.79285-36.470328 29.629193 10.238113 4.718024a388.859565 388.859565 0 0 1 43.877626 24.863989H602.538887c-1.085146-13.54073-1.556948-28.308146-2.028751-42.698121v-14.389974H546.158496v7.265758c0.566163 18.258754 1.462588 35.479543 2.783634 49.822337H295.537044v92.190195a337.4331 337.4331 0 0 1-45.717656 190.466642l-4.718024 6.652414 7.077036 3.72724a124.225581 124.225581 0 0 1 28.827129 24.722447l6.086251 7.407298 5.237007-7.643199A400.418725 400.418725 0 0 0 348.614818 316.10763v-43.358644h205.139697a571.541467 571.541467 0 0 0 42.462219 160.082566 436.27571 436.27571 0 0 1-59.069664 46.236638V359.843715h-173.151493v134.558054h154.185035l5.237007 4.340583a248.21526 248.21526 0 0 1 29.015849 27.27018l3.963141 4.718025 5.237007-3.302617a495.864357 495.864357 0 0 0 60.626613-47.180244z m-123.565058 27.27018l-47.180243 22.174715 7.077037 7.077036a672.176926 672.176926 0 0 1 73.365278 85.537781l3.491338 5.472908 47.746406-25.477331-4.340582-6.510873a659.532621 659.532621 0 0 0-76.950977-84.924438z m-141.540729-211.41467v44.726871h189.994839v-44.726871z m131.774419 153.996314H412.449687V405.27829h76.290453v45.057132z" fill="#2BB74A" p-id="13686"></path></svg>