<?xml version="1.0" standalone="no"?><!DOCTYPE svg PUBLIC "-//W3C//DTD SVG 1.1//EN" "http://www.w3.org/Graphics/SVG/1.1/DTD/svg11.dtd"><svg t="1568899557259" class="icon" viewBox="0 0 1024 1024" version="1.1" xmlns="http://www.w3.org/2000/svg" p-id="535" xmlns:xlink="http://www.w3.org/1999/xlink" width="200" height="200"><defs><style type="text/css"></style></defs><path d="M512 64C264.6 64 64 264.6 64 512s200.6 448 448 448 448-200.6 448-448S759.4 64 512 64z m0 820c-205.4 0-372-166.6-372-372s166.6-372 372-372 372 166.6 372 372-166.6 372-372 372z" p-id="536"></path><path d="M682.7 341.3c-16.6-16.6-43.5-16.6-60.1 0L512 451.9 401.4 341.3c-16.6-16.6-43.5-16.6-60.1 0-16.6 16.6-16.6 43.5 0 60.1L451.9 512 341.3 622.6c-16.6 16.6-16.6 43.5 0 60.1 8.3 8.3 19.2 12.5 30.1 12.5s21.8-4.2 30.1-12.5L512 572.1l110.6 110.6c8.3 8.3 19.2 12.5 30.1 12.5s21.8-4.2 30.1-12.5c16.6-16.6 16.6-43.5 0-60.1L572.1 512l110.6-110.6c16.6-16.6 16.6-43.5 0-60.1z" p-id="537"></path></svg>
