<svg t="1717033723341" class="icon" viewBox="0 0 1072 1024" version="1.1" xmlns="http://www.w3.org/2000/svg" p-id="4696" width="200" height="200"><path d="M144.621919 218.666897c24.433825 13.573436 54.297025 19.004451 62.439445 54.300308l2.71797 2.713046c19.00281-2.713046 27.146871 8.144061 35.289291 19.001168 2.71797 5.431015 8.145703 8.148985 13.575076 5.431016 5.431015-2.713046 2.713046-8.144061 2.713046-13.573436V123.649566c0-5.431015 2.716328-10.862031-2.713046-13.575077-5.429374-2.713046-13.575077 0-16.286481 5.431016-10.863672 27.146871-32.577887 19.00281-51.583979 19.00281H136.477858c-2.71797 0-10.862031-2.713046-13.575077 5.431015-13.575077 16.288123 0 67.87046 21.719138 78.727567z m111.308737 114.023424c-5.431015-2.713046-13.573436 2.71797-13.573436 8.148985-8.145703 24.432184-27.150154 19.001168-43.439917 19.001169H136.477858c-5.431015 0-10.862031-2.714687-16.289764 5.431015-8.14242 19.001168 2.714687 67.87046 21.720779 76.01288 43.434994 16.289764 67.872102 54.298666 103.161393 78.73085 5.431015 2.71797 8.145703 8.14242 13.575077 5.431016 5.431015-2.713046 2.713046-8.144061 2.713046-10.857107V351.694772c0-8.14242 2.71797-13.573436-5.427733-19.004451z m0 225.335443c-8.14242-2.714687-16.289764 5.431015-19.004451 10.860389-2.713046 16.288123-16.288123 13.575077-27.146871 13.575077H136.477858c-5.431015 0-10.862031-2.71797-16.289764 5.426092-10.86039 19.007734 2.714687 70.58843 24.433825 78.734132 40.721948 13.575077 62.439445 51.582338 95.018973 76.014522 5.429374 2.713046 8.147344 8.144061 13.575077 5.431015 8.14242-2.71797 5.429374-10.862031 5.429374-13.575076v-154.748654c2.713046-8.144061 8.144061-19.00281-2.714687-21.717497z m336.640896-352.929019v81.443895c0 5.429374-2.713046 10.86039 2.71797 13.573436 5.427733 2.71797 10.857107-2.713046 13.570153-8.144062 8.148985-10.857107 13.575077-21.719138 29.864841-19.001168 5.432657 0 5.432657-5.431015 8.144061-8.148985 5.432657-19.001168 21.720779-29.859917 38.012185-38.007261 46.152963-21.714214 48.866009-27.146871 46.152963-78.729209 0-13.575077-5.432657-16.286481-16.293047-16.286481H644.155531c-13.575077 0-24.433825 2.713046-29.864841-13.575077-2.713046-5.431015-10.857107-10.857107-16.289764-10.857107-10.857107 0-5.429374 10.857107-5.429374 16.288123v81.443896z m0 244.334969c38.007261-40.720307 78.732491-62.439445 127.596859-70.583506 8.144061-2.71797 10.863672-5.431015 10.863673-13.575077 0-10.862031-8.145703-8.145703-13.575077-8.145702H644.155531c-13.575077 0-27.146871 2.714687-29.864841-16.286481 0-5.431015-8.144061-10.862031-16.289764-8.148986-8.14242 2.71797-5.429374 10.862031-5.429374 13.575077v103.164675zM565.424681 145.368704c0-40.72523-19.007734-65.157414-57.011712-65.157414H342.803926c-32.574604 0-54.295383 24.433825-54.295384 57.014994v610.842349c0 21.714214 5.431015 43.434994 27.150154 48.864368 35.290932 8.145703 29.863199 32.577887 29.863199 57.014994v35.289291c0 19.007734 8.144061 29.863199 29.859917 29.863199h105.882645c19.00281 0 29.859917-10.857107 29.859917-29.863199v-62.441086c0-13.575077 2.71797-19.006092 16.293046-24.432184 35.290932-10.86039 48.866009-43.438276 32.577887-78.732491-29.863199-59.72804-38.007261-124.882172-10.858748-187.326541 19.00281-46.151322 21.714214-89.586316 21.714214-135.742561v-92.304286c-5.426092-54.297025-5.426092-108.592408-5.426092-162.889433z m-57.011712 575.548134c0 19.001168-10.858748 29.863199-29.86484 29.863199H372.670408c-19.00281 0-29.866482-10.862031-29.866482-29.863199v-38.008902c0-59.72804 0-59.72804 51.583978-89.589599 27.150154-16.288123 51.583979-13.575077 76.016163 5.431016 8.14242 5.427733 13.575077 13.575077 21.717497 16.288122 10.857107 2.713046 16.289764 13.575077 16.289764 27.150154v78.729209z m0-274.198169v51.579055c0 19.006092-10.858748 29.863199-29.86484 29.863199H372.670408c-19.00281 0-29.866482-10.857107-29.866482-29.863199V416.853828c0-8.14242 2.71797-16.291405 8.145702-19.004451 21.720779-10.858748 38.007261-29.864841 62.442728-35.294215 27.148512-8.144061 43.434994 8.147344 65.154131 19.006092 29.866482 13.575077 32.577887 38.007261 29.866482 65.157415z m0-225.333802v48.864368c0 24.432184-10.858748 35.294215-35.295856 32.581169h-100.446705c-21.720779 0-32.577887-10.862031-32.577887-29.863199v-76.019446c0-8.144061 0-16.288123 8.145703-21.714214 21.717497-10.862031 38.003978-29.864841 62.437803-35.294215 24.432184-5.431015 43.438276 8.144061 65.159056 19.00281 32.577887 13.571794 35.289291 35.292574 32.577886 62.442727z m336.642538 605.411333c84.160224-32.576245 127.5985-95.022255 138.455608-184.608571 13.575077-105.882645-67.87046-211.762007-171.036777-228.05013-8.144061-5.426092-16.288123-5.426092-27.146871-2.714687h-10.862031c-8.144061 0-19.001168-2.711405-27.146871 2.714687-5.431015 0-13.573436 0-19.006092 2.716329-86.871629 27.146871-149.317639 103.163034-152.029043 192.752632-5.434298 97.73366 46.149681 179.180838 135.742561 214.475053 16.286481 5.427733 16.286481 16.289764 16.286482 29.864841 0 16.288123-13.575077 8.144061-21.719138 10.857107h-38.007261c-57.010071 0-57.010071 0-57.010071 57.013353 0 19.00281 5.431015 21.714214 21.719138 21.714214h247.048016c62.44601 0 62.44601 0 59.72804-62.439445 0-13.575077-2.711405-19.00281-16.289764-16.288122h-76.014521c-8.145703 0-19.001168 5.431015-19.001169-8.144062 5.427733-13.575077 0.001641-24.432184 16.289764-29.863199z m-103.166316-401.798311h81.447178c16.286481 13.575077 10.857107 24.432184-5.431015 24.432184-24.432184 2.714687-46.152963 2.714687-70.586789 0-16.286481-2.711405-21.719138-13.573436-5.429374-24.432184z m40.721948 317.638087c-62.441086 0-114.023424-51.582338-114.023424-119.454439 0-65.155773 51.580696-122.167485 116.739752-119.454439 62.441086 0 111.310378 54.298666 111.310378 122.169126 0 65.157414-51.582338 116.739752-114.026706 116.739752z m0 0" p-id="4697" fill="#1296db"></path><path d="M782.611139 574.317169c10.862031 10.857107 13.575077 24.432184 8.148985 38.007261-5.432657 8.14242-10.862031 10.857107-21.719138 10.857107-16.289764 0-21.720779-13.575077-27.151795-29.8632-16.288123 32.577887-10.857107 54.297025 8.144061 73.303117 19.007734 13.575077 38.008902 16.288123 59.72804 2.713046 19.007734-10.858748 29.863199-38.007261 21.72078-59.72804-8.145703-21.719138-21.722421-38.007261-48.870933-35.289291z m0 0" p-id="4698" fill="#1296db"></path></svg>