<?xml version="1.0" standalone="no"?><!DOCTYPE svg PUBLIC "-//W3C//DTD SVG 1.1//EN" "http://www.w3.org/Graphics/SVG/1.1/DTD/svg11.dtd"><svg t="1706694589462" class="icon" viewBox="0 0 1024 1024" version="1.1" xmlns="http://www.w3.org/2000/svg" p-id="12668" xmlns:xlink="http://www.w3.org/1999/xlink" width="200" height="200"><path d="M730.795 784h-448V514.432A210.987 210.987 0 0 1 493.227 304h27.136a210.987 210.987 0 0 1 210.432 210.432V784z m-146.56-224a78.933 78.933 0 1 1-157.867 0 78.933 78.933 0 0 1 157.867 0z m34.133 0a113.067 113.067 0 1 0-226.133 0 113.067 113.067 0 0 0 226.133 0z m158.123 367.787h-544a48.128 48.128 0 0 1-48-48c0-26.454 21.632-48 48-48h544c26.453 0 48 21.546 48 48s-21.59 48-48 48zM506.795 224c-14.08 0-25.6-11.52-25.6-25.6V89.6c0-14.08 11.52-25.6 25.6-25.6 14.08 0 25.6 11.52 25.6 25.6v108.8c0 14.08-11.52 25.6-25.6 25.6zM215.893 469.888a25.643 25.643 0 0 1-32.853 15.275L80.896 448a25.643 25.643 0 0 1-15.36-32.853 25.728 25.728 0 0 1 32.853-15.275l102.272 37.163a25.6 25.6 0 0 1 15.275 32.853z m587.222 0a25.685 25.685 0 0 1 15.274-32.853l102.272-37.163a25.685 25.685 0 0 1 32.854 15.275A25.728 25.728 0 0 1 938.155 448l-102.23 37.163a25.685 25.685 0 0 1-32.853-15.275zM314.58 286.251a25.685 25.685 0 0 1-35.626-6.272l-62.422-89.174a25.685 25.685 0 0 1 6.272-35.626 25.685 25.685 0 0 1 35.67 6.272l62.464 89.173a25.643 25.643 0 0 1-6.358 35.627z m389.718 0a25.643 25.643 0 0 1-6.358-35.627l62.464-89.173a25.685 25.685 0 0 1 35.67-6.272c11.52 8.064 14.336 24.149 6.272 35.669l-62.422 89.173a25.685 25.685 0 0 1-35.626 6.23z" fill="#55BC4C" p-id="12669"></path></svg>