<svg t="1721869844221" class="icon" viewBox="0 0 1024 1024" version="1.1" xmlns="http://www.w3.org/2000/svg" p-id="4289" width="200" height="200"><path d="M871.9 368.3c78.9 197.7-8.6 425.3-199.6 519.3-201.6 99.1-442.5 17.2-544.3-177.3-6.6-12.7-1.1-28.3 11.9-34.2l11.1-5c11.9-5.3 25.9-0.5 32 11 87.5 166.2 294.7 235.3 466.5 147.7 151.2-77 227.4-275.3 166.9-433.8-71.7-187.7-285.8-274.9-467-194.2-36.5 16.3-69.5 38.5-97.7 65.3l67.7-14.6c8-1.7 16.3 0.8 22 6.7l4.2 4.3c12.9 13.4 6.1 35.7-12.1 39.6l-123.2 26.6c-3.6 0.8-7.3 0.7-10.8-0.2-4.2-1-8.1-3.3-11.3-6.5l-24.6-25.5c-4-4.2-6.3-9.7-6.6-15.4-0.1-2.3 0.1-4.6 0.7-6.9l30.8-122.4c4.5-18 27.1-24 40.1-10.6l4.1 4.3a23.6 23.6 0 0 1 5.9 22.2l-8.9 35.2c28.4-23.5 60-43.3 94.5-58.6 211.6-94.1 461.1 5.9 547.7 223z" fill="#1296db" p-id="4290"></path><path d="M516.1 561h-23.5c-3.6 0-6.6-2.9-6.6-6.6V352.7c0-3.6 2.9-6.6 6.6-6.6h47c3.6 0 6.6 2.9 6.6 6.6v178.2c-0.1 16.6-13.6 30.1-30.1 30.1z" fill="#1296db" p-id="4291"></path><path d="M353.3 700.8l-30.1-35.4c-2.4-2.9-2.1-7.2 0.8-9.6L514.3 494c2.9-2.4 7.2-2.1 9.6 0.8l11.9 14c12.4 14.6 10.6 36.8-4 49.2L362.9 701.6c-2.8 2.4-7.1 2-9.6-0.8z" fill="#1296db" p-id="4292"></path></svg>