<?xml version="1.0" standalone="no"?><!DOCTYPE svg PUBLIC "-//W3C//DTD SVG 1.1//EN" "http://www.w3.org/Graphics/SVG/1.1/DTD/svg11.dtd"><svg t="1704808627045" class="icon" viewBox="0 0 1024 1024" version="1.1" xmlns="http://www.w3.org/2000/svg" p-id="72238" xmlns:xlink="http://www.w3.org/1999/xlink" width="200" height="200"><path d="M1024.006921 540.444444l-36.029629-12.325925-90.074074 25.6L824.89581 753.777778l54.044445 74.903703 36.029629 12.325926z" fill="#565656" p-id="72239"></path><path d="M897.903218 553.718519l-36.02963 99.555555 107.140741 37.925926L1024.006921 540.444444l-36.029629-12.325925z" fill="#7F7F7F" p-id="72240"></path><path d="M818.258773 498.725926L674.140255 694.992593l123.259259 47.407407 87.22963-218.074074-66.370371-25.6zM112.836551 651.377778l80.592593 31.288889-31.288889 68.266666H14.229144v61.62963h189.629629v-2.844444l48.355556-104.296297L341.340255 739.555556l27.496296-68.266667-228.503704-88.177778-27.496296 68.266667zM756.629144 406.755556L195.32544 191.525926l-15.17037-4.740741c-25.6-9.481481-53.096296 0-67.318519 20.859259L3.799514 455.111111c-11.377778 28.444444 3.792593 60.681481 32.237037 71.111111l520.533333 199.111111c24.651852 9.481481 52.148148 0.948148 67.318519-18.962963l158.340741-215.229629c21.807407-29.392593 9.481481-71.111111-25.6-84.385185z" fill="#565656" p-id="72241"></path><path d="M706.377292 594.488889l75.851852-103.348148c21.807407-29.392593 9.481481-71.111111-25.6-84.385185L195.32544 191.525926l-15.17037-4.740741c-25.6-9.481481-53.096296 0-67.318519 20.859259L52.15507 344.177778l654.222222 250.311111z" fill="#7F7F7F" p-id="72242"></path><path d="M603.029144 461.748148a37.925926 36.977778 0 1 0 75.851852 0 37.925926 36.977778 0 1 0-75.851852 0Z" fill="#FFFFFF" p-id="72243"></path><path d="M837.221736 642.844444l47.407408-118.518518-66.370371-25.6L739.562477 606.814815zM818.258773 498.725926z" fill="#7F7F7F" p-id="72244"></path></svg>