<?xml version="1.0" standalone="no"?><!DOCTYPE svg PUBLIC "-//W3C//DTD SVG 1.1//EN" "http://www.w3.org/Graphics/SVG/1.1/DTD/svg11.dtd"><svg t="1704793942255" class="icon" viewBox="0 0 1024 1024" version="1.1" xmlns="http://www.w3.org/2000/svg" p-id="19347" xmlns:xlink="http://www.w3.org/1999/xlink" width="200" height="200"><path d="M216.798716 485.336588c-15.578643-14.381119-39.877713-13.405761-54.257027 2.174689-14.397375 15.580449-13.420211 39.883132 2.171076 54.262445 62.919655 58.086212 125.851954 116.17423 188.784252 174.262247 41.552079 38.360489 106.337558 35.766758 144.696241-5.787127 129.654045-140.451625 259.295447-280.906863 388.947687-421.363907 14.397375-15.591286 13.420211-39.883132-2.171076-54.262445-15.578643-14.39015-39.877713-13.416598-54.262445 2.16385-129.646821 140.455238-259.295447 280.910476-388.947686 421.365714-12.284099 13.308225-22.868545 13.725462-36.183995 1.457619-62.925074-58.088018-125.844729-116.188679-188.777027-174.273085z" fill="#1296db" p-id="19348"></path><path d="M0 921.594581V102.394581C0 45.840044 45.84185 0 102.4 0H921.587356c56.55815 0 102.410837 45.840044 102.410838 102.394581v819.2c0 56.556344-45.854494 102.405419-102.410838 102.405419H102.398194C45.84185 1024 0 978.150925 0 921.594581z m947.204967 0V102.394581c0-18.098319-7.499423-25.599548-25.617611-25.599548H102.398194c-18.105544 0-25.606773 7.501229-25.606774 25.599548v819.2c0 18.109156 7.499423 25.610386 25.606774 25.610386H921.587356c18.118187 0 25.617611-7.501229 25.617611-25.610386z" fill="#1296db" p-id="19349"></path></svg>