<svg t="1711437560286" class="icon" viewBox="0 0 1024 1024" version="1.1" xmlns="http://www.w3.org/2000/svg" p-id="2682" width="200" height="200"><path d="M336.12288 346.84672l-75.53536-0.68608a11.03872 11.03872 0 0 0-10.92864 9.02912l-32.63232 183.70304a10.96704 10.96704 0 0 0 10.79552 12.80512l81.33888 0.26624a11.03872 11.03872 0 0 0 10.79808-9.32096l26.97984-183.17056a11.01312 11.01312 0 0 0-2.56-8.76544 10.29888 10.29888 0 0 0-8.23552-3.90656l-0.02048 0.04608z m24.1536-179.53024l-65.28768-0.81664a11.03616 11.03616 0 0 0-11.06176 9.03168l-22.12352 125.43488a11.25632 11.25632 0 0 0 2.29632 8.89856 11.52512 11.52512 0 0 0 8.23552 4.03968l68.8 0.68608a10.9056 10.9056 0 0 0 10.79552-9.3184l18.6112-125.16864a10.94656 10.94656 0 0 0-2.42688-8.63232c-1.61024-2.69568-4.59008-4.04224-7.81568-4.1728l-0.02304 0.01792z m-59.4816 439.4496H210.82112a10.99264 10.99264 0 0 0-10.79552 9.03424l-41.13408 228.76416a11.01056 11.01056 0 0 0 10.79552 12.93312h97.78944a10.9056 10.9056 0 0 0 10.79808-9.44896l33.3184-228.76416a11.51488 11.51488 0 0 0-2.56-8.76544c-2.03008-2.42944-4.98944-3.776-8.23552-3.776v0.02304z m564.21888 236.9792l-41.00096-227.8144a10.9824 10.9824 0 0 0-10.79808-9.03424h-89.97376c-3.24608 0-6.20288 1.34912-8.23552 3.78112a11.53024 11.53024 0 0 0-2.56256 8.76544l33.32096 228.50048a11.0336 11.0336 0 0 0 10.79808 9.44896h97.78688a10.88768 10.88768 0 0 0 10.9312-10.9312 16.13824 16.13824 0 0 0-0.26624-2.69568v-0.02048z m-182.2208-529.00352l68.6464-0.68352a11.01824 11.01824 0 0 0 10.53184-12.9408l-22.12352-125.43488a10.9312 10.9312 0 0 0-11.06176-9.02912l-65.28768 0.81664c-3.09248 0.13312-6.07232 1.47968-8.10496 3.90656-2.03008 2.42944-2.95936 5.51936-2.42688 8.63232l18.74432 125.16864a10.9056 10.9056 0 0 0 10.79808 9.3184c0.13312 0.26624 0.26368 0.26624 0.26368 0.26624l0.02048-0.02048z m32.3712 237.37856l81.33632-0.26624a10.9696 10.9696 0 0 0 10.79552-12.80512l-32.768-183.70304a11.01312 11.01312 0 0 0-10.92864-9.02912l-75.66848 0.68608c-3.08992 0-6.20288 1.47712-8.23552 3.90656a11.3536 11.3536 0 0 0-2.56256 8.76544l26.9824 183.30624a11.1616 11.1616 0 0 0 11.06176 9.15968c-0.13312 0-0.13312 0 0 0l-0.0128-0.02048z" fill="#4695d6" p-id="2683"></path></svg>