<svg t="1720605197481" class="icon" viewBox="0 0 1024 1024" version="1.1" xmlns="http://www.w3.org/2000/svg" p-id="4638" width="200" height="200"><path d="M188.416 552.96c-7.68-11.776-51.712-83.456-43.52-175.104 1.024-9.216 4.096-44.032 22.016-84.992C189.952 237.568 224.768 204.288 235.52 194.56c50.176-45.568 103.936-60.416 130.048-65.536 112.64-23.04 199.68 33.28 211.968 41.472 10.752 7.168 102.912 71.168 120.832 189.952 9.728 63.488-5.12 121.344-19.456 152.064-4.096 8.192-15.36 30.72-32.256 56.32-10.752 16.384-11.264 15.872-25.088 35.84-27.648 39.936-41.472 67.072-48.128 82.944-5.12 11.264-9.728 23.552-13.312 38.912l-3.072 15.36c-2.56 18.432-1.536 30.208-9.216 43.52-9.216 16.384-24.576 24.576-28.672 26.624-8.192 4.096-15.872 5.12-20.48 5.632H346.112c-5.12-0.512-24.064-3.072-38.912-19.456-17.92-19.456-16.384-43.008-15.872-47.104-1.024-14.336-4.096-34.304-12.8-57.344-8.192-22.528-18.432-37.888-26.624-49.664-40.448-60.416-51.712-72.704-63.488-91.136z m316.928 318.464H343.04c-8.704 0-15.36-6.656-15.36-15.36s6.656-15.36 15.36-15.36h162.304c8.704 0 15.36 6.656 15.36 15.36s-6.656 15.36-15.36 15.36z m-51.2 46.08H393.728c-15.36 0-27.648-12.288-27.648-27.648v-5.632h116.224v5.632c-0.512 15.36-12.8 27.648-28.16 27.648zM591.36 885.76c0 14.336 11.776 26.112 26.112 26.112h56.832c14.336 0 26.112-11.776 26.112-26.112v-5.12h-109.056v5.12z" fill="#41A7FF" p-id="4639"></path><path d="M903.168 390.144c-16.896-111.616-102.912-171.008-113.152-178.176-10.24-6.656-79.36-51.2-171.52-43.008 12.8 8.704 102.4 72.192 120.32 189.44 9.728 63.488-5.12 121.344-19.456 152.064-4.096 8.192-15.36 30.72-32.256 56.32-10.752 16.384-11.264 15.872-25.088 35.84-27.648 39.936-41.472 67.072-48.128 82.944-5.12 11.264-9.728 23.552-13.312 38.912l-3.072 15.36c-2.56 18.432-1.536 30.208-9.216 43.52-9.216 16.384-24.576 24.576-28.672 26.624-2.048 1.024-3.584 1.536-5.632 2.048 8.704 4.096 16.384 5.12 19.456 5.632h142.336c4.608-0.512 11.776-1.536 19.456-5.632 3.584-2.048 18.432-9.216 27.136-24.576 7.168-12.8 6.144-23.552 8.704-40.96 0.512-5.12 1.536-9.728 2.56-14.336 3.584-13.824 7.68-25.6 12.288-36.352 6.656-14.848 19.456-40.448 45.056-77.824 12.8-18.432 13.824-18.432 23.552-33.28 15.872-24.064 26.624-45.056 30.208-52.736 13.824-28.672 27.136-82.432 18.432-141.824zM722.432 839.68h-152.064c-4.608 0-9.216 2.56-11.776 6.144 1.536 2.56 3.072 5.632 3.072 8.704 0 3.072-1.024 6.144-2.56 8.704 2.56 3.584 6.656 5.632 11.264 5.632h152.064c8.192 0 14.336-6.656 14.336-14.336s-6.144-14.848-14.336-14.848z" fill="#41A7FF" p-id="4640"></path></svg>