<svg t="1711614515956" class="icon" viewBox="0 0 1024 1024" version="1.1" xmlns="http://www.w3.org/2000/svg" p-id="6130" width="200" height="200"><path d="M512 1024C229.23264 1024 0 794.76736 0 512S229.23264 0 512 0s512 229.23264 512 512-229.23264 512-512 512z m0-93.09184c231.35744 0 418.90816-187.55072 418.90816-418.90816S743.35744 93.09184 512 93.09184 93.09184 280.64256 93.09184 512 280.64256 930.90816 512 930.90816z m224.02048-519.81312L672.9728 350.38208v452.5312H576v-161.61792H414.38208l64.65024 64.64512H382.0544l-96.9728-106.9056 96.9728-119.35744h96.9728l-64.65024 64.64512H576V350.38208L511.35488 411.09504V323.15392l112.3328-102.06208 113.93024 111.49312-1.59744 78.51008z" fill="#49A4FF" p-id="6131"></path></svg>