<svg t="1720605540979" class="icon" viewBox="0 0 1886 1024" version="1.1" xmlns="http://www.w3.org/2000/svg" p-id="12079" width="200" height="200"><path d="M1621.962105 452.500211H68.823579v119.215157h1553.138526z" fill="#49A4FF" p-id="12080"></path><path d="M1278.922105 757.059368l283.971369-244.897684-283.971369-244.951579 538.516211 244.951579z" fill="#49A4FF" p-id="12081"></path><path d="M1218.991158 427.870316l-21.018947-246.191158-241.340632 53.032421L1296.761263 47.535158z" fill="#49A4FF" p-id="12082"></path><path d="M364.058947 524.234105l436.547369-0.700631a698.799158 698.799158 0 0 0 440.697263-339.321263l-59.553684-32.336843a638.814316 638.814316 0 0 1-391.491369 304.666948H364.058947z" fill="#49A4FF" p-id="12083"></path><path d="M1223.087158 596.129684l-21.018947 246.191158-241.340632-53.032421 340.129684 187.176421z" fill="#49A4FF" p-id="12084"></path><path d="M363.735579 499.712l436.547368 0.700632a698.691368 698.691368 0 0 1 440.697264 339.213473l-59.553685 32.336842a638.868211 638.868211 0 0 0-391.491368-304.505263H363.735579z" fill="#49A4FF" p-id="12085"></path></svg>