<svg t="1725935252523" class="icon" viewBox="0 0 1024 1024" version="1.1" xmlns="http://www.w3.org/2000/svg" p-id="5507" width="200" height="200"><path d="M306.834286 987.794286h373.028571a125.513143 125.513143 0 0 0 124.342857-126.902857V163.84a125.586286 125.586286 0 0 0-124.342857-126.902857H306.834286a125.549714 125.549714 0 0 0-124.342857 126.902857v697.051429a125.549714 125.549714 0 0 0 124.342857 126.902857z m251.062857-69.851429a107.227429 107.227429 0 0 1-107.812572 0 110.811429 110.811429 0 0 1 0-190.171428 106.532571 106.532571 0 0 1 147.2 40.228571 110.994286 110.994286 0 0 1-39.387428 149.942857z m0-307.565714a107.227429 107.227429 0 0 1-107.812572 0 112.786286 112.786286 0 0 1-39.387428-40.228572 111.36 111.36 0 0 1 39.387428-150.308571 107.154286 107.154286 0 0 1 147.2 40.228571 111.36 111.36 0 0 1-39.387428 150.308572zM503.478857 98.011429a109.933714 109.933714 0 0 1 0 219.794285 107.629714 107.629714 0 0 1-76.397714-32.182857 111.652571 111.652571 0 0 1-31.341714-77.531428 109.056 109.056 0 0 1 107.739428-110.08z" p-id="5508" fill="#1296db"></path></svg>