<svg t="1723708282926" class="icon" viewBox="0 0 1024 1024" version="1.1" xmlns="http://www.w3.org/2000/svg" p-id="4270" width="200" height="200"><path d="M958.593 673.951h-338.08c-23.993 0-43.623-19.63-43.623-43.623s19.63-43.623 43.623-43.623h338.08c23.992 0 43.623 19.63 43.623 43.623s-19.63 43.623-43.623 43.623z m0 157.044h-338.08c-23.993 0-43.623-19.63-43.623-43.623s19.63-43.624 43.623-43.624h338.08c23.992 0 43.623 19.63 43.623 43.624s-19.63 43.623-43.623 43.623z m0 157.589h-338.08c-23.993 0-43.623-19.63-43.623-43.624s19.63-43.623 43.623-43.623h338.08c23.992 0 43.623 19.63 43.623 43.623s-19.63 43.624-43.623 43.624z m-448.229-808.12c-23.993 0-43.623 19.63-43.623 43.623v229.022H306.97c-23.993 0-43.623 19.63-43.623 43.623s19.63 43.623 43.623 43.623h203.393c23.993 0 43.623-19.63 43.623-43.623V224.087c0-24.538-19.63-43.623-43.623-43.623z m0 721.418v-0.545c-223.024 0-404.605-181.581-404.605-404.605 0-23.993-19.63-43.623-43.623-43.623s-43.624 19.63-43.624 43.623c0 267.737 215.39 486.399 482.037 491.852h9.27v-0.546c1.09 0 1.636 0 2.726-0.545 23.448-4.908 38.716-28.355 33.263-51.803-3.272-18.54-17.995-31.626-35.444-33.808z" fill="#1296db" p-id="4271"></path><path d="M1002.216 484.19C995.672 218.634 777.556 4.335 510.364 4.335 361.5 4.335 221.36 73.04 128.661 185.916L112.302 48.503c-2.726-23.992-24.538-40.896-48.53-38.17s-40.897 24.538-38.17 48.53l30.535 249.198c2.727 22.357 21.267 38.17 43.078 38.17 1.636 0 3.272 0 5.453-0.544l249.198-29.446c23.993-2.727 40.897-24.538 38.17-48.531s-24.538-40.897-48.53-38.17l-152.137 18.54c75.796-96.517 193.578-155.953 318.995-155.953 223.024 0 404.605 181.581 404.605 404.605h0.546c0 1.636 0.545 3.272 0.545 4.362 4.908 23.448 28.355 38.716 51.803 33.263 23.447-4.908 38.17-27.265 34.353-50.167z" fill="#1296db" p-id="4272"></path></svg>