<?xml version="1.0" standalone="no"?><!DOCTYPE svg PUBLIC "-//W3C//DTD SVG 1.1//EN" "http://www.w3.org/Graphics/SVG/1.1/DTD/svg11.dtd"><svg t="1705893111175" class="icon" viewBox="0 0 1024 1024" version="1.1" xmlns="http://www.w3.org/2000/svg" p-id="6282" xmlns:xlink="http://www.w3.org/1999/xlink" width="200" height="200"><path d="M204.8 307.2h614.4a204.8 204.8 0 0 1 0 409.6H204.8a204.8 204.8 0 0 1 0-409.6z" fill="#FFFFFF" p-id="6283"></path><path d="M204.8 358.4h614.4a153.6 153.6 0 1 1 0 307.2H204.8a153.6 153.6 0 1 1 0-307.2z" fill="#333333" p-id="6284"></path><path d="M256 512m-102.4 0a102.4 102.4 0 1 0 204.8 0 102.4 102.4 0 1 0-204.8 0Z" fill="#FB0606" p-id="6285"></path><path d="M512 512m-102.4 0a102.4 102.4 0 1 0 204.8 0 102.4 102.4 0 1 0-204.8 0Z" fill="#FFFF00" p-id="6286"></path><path d="M768 512m-102.4 0a102.4 102.4 0 1 0 204.8 0 102.4 102.4 0 1 0-204.8 0Z" fill="#00FF00" p-id="6287"></path></svg>