<?xml version="1.0" standalone="no"?><!DOCTYPE svg PUBLIC "-//W3C//DTD SVG 1.1//EN" "http://www.w3.org/Graphics/SVG/1.1/DTD/svg11.dtd"><svg t="1706694222238" class="icon" viewBox="0 0 1024 1024" version="1.1" xmlns="http://www.w3.org/2000/svg" p-id="6391" xmlns:xlink="http://www.w3.org/1999/xlink" width="200" height="200"><path d="M170.666667 0h682.666666a85.333333 85.333333 0 0 1 85.333334 85.333333v853.333334a85.333333 85.333333 0 0 1-85.333334 85.333333H170.666667a85.333333 85.333333 0 0 1-85.333334-85.333333V85.333333a85.333333 85.333333 0 0 1 85.333334-85.333333z m85.333333 170.666667v682.666666h85.333333V170.666667H256z m426.666667 0v682.666666h85.333333V170.666667H682.666667zM471.893333 170.666667v170.666666h85.333334V170.666667h-85.333334z m0 256v170.666666h85.333334V426.666667h-85.333334z m0 256v170.666666h85.333334V682.666667h-85.333334z" fill="#9571E9" p-id="6392"></path></svg>